<svg width="13" height="13" viewBox="0 0 13 13" fill="none" xmlns="http://www.w3.org/2000/svg">
<g id="Group 47884">
<g id="Group 47882">
<path id="Shape" fill-rule="evenodd" clip-rule="evenodd" d="M0.511511 8.87012C0.16283 9.20485 0.16283 9.74756 0.511511 10.0823L2.29722 11.7966C2.6459 12.1313 3.21123 12.1313 3.55991 11.7966C3.90859 11.4618 3.90859 10.9191 3.55991 10.5844L3.2984 10.3333H10.0714C10.5645 10.3333 10.9643 9.94959 10.9643 9.4762C10.9643 9.00282 10.5645 8.61906 10.0714 8.61906H3.2984L3.55991 8.36801C3.90859 8.03328 3.90859 7.49057 3.55991 7.15584C3.21123 6.8211 2.6459 6.8211 2.29722 7.15584L0.511511 8.87012Z" fill="#41CC5D"/>
<path id="Shape_2" fill-rule="evenodd" clip-rule="evenodd" d="M12.4885 3.22461C12.8372 2.88988 12.8372 2.34717 12.4885 2.01243L10.7028 0.298152C10.3541 -0.0365817 9.78877 -0.0365818 9.44009 0.298152C9.09141 0.632886 9.09141 1.1756 9.44009 1.51033L9.7016 1.76138L2.9286 1.76138C2.43549 1.76138 2.03574 2.14514 2.03574 2.61852C2.03574 3.09191 2.43549 3.47566 2.9286 3.47566L9.7016 3.47566L9.44009 3.72671C9.09141 4.06145 9.09141 4.60416 9.44009 4.93889C9.78877 5.27362 10.3541 5.27362 10.7028 4.93889L12.4885 3.22461Z" fill="#41CC5D"/>
</g>
</g>
</svg>
