<svg width="25" height="24" viewBox="0 0 25 24" fill="none"
  xmlns="http://www.w3.org/2000/svg">
  <circle cx="14.1084" cy="10.0344" r="5.63827" transform="rotate(45 14.1084 10.0344)" stroke="white" stroke-opacity="0.8" stroke-width="1.5"/>
  <mask id="path-2-inside-1_21921_622" fill="white">
    <path d="M16.4244 15.2988C16.1883 16.4059 15.6622 17.4304 14.9 18.2673C14.1378 19.1043 13.1669 19.7237 12.0867 20.0621C11.0065 20.4005 9.8557 20.4459 8.75221 20.1934C7.64871 19.941 6.63211 19.3999 5.80645 18.6255C4.9808 17.851 4.37575 16.8711 4.05324 15.7861C3.73073 14.701 3.70234 13.5497 3.97098 12.45C4.23961 11.3504 4.79562 10.3418 5.5821 9.52765C6.36858 8.71348 7.35727 8.12291 8.44698 7.81639L8.88032 9.35698C8.0636 9.58671 7.32259 10.0293 6.73314 10.6395C6.14369 11.2497 5.72697 12.0056 5.52563 12.8298C5.32429 13.654 5.34557 14.5169 5.58729 15.3301C5.829 16.1434 6.28248 16.8778 6.90129 17.4582C7.5201 18.0386 8.28203 18.4442 9.10908 18.6334C9.93613 18.8226 10.7986 18.7886 11.6082 18.5349C12.4178 18.2813 13.1455 17.817 13.7167 17.1898C14.288 16.5625 14.6823 15.7947 14.8593 14.9649L16.4244 15.2988Z"/>
  </mask>
  <path d="M16.4244 15.2988C16.1883 16.4059 15.6622 17.4304 14.9 18.2673C14.1378 19.1043 13.1669 19.7237 12.0867 20.0621C11.0065 20.4005 9.8557 20.4459 8.75221 20.1934C7.64871 19.941 6.63211 19.3999 5.80645 18.6255C4.9808 17.851 4.37575 16.8711 4.05324 15.7861C3.73073 14.701 3.70234 13.5497 3.97098 12.45C4.23961 11.3504 4.79562 10.3418 5.5821 9.52765C6.36858 8.71348 7.35727 8.12291 8.44698 7.81639L8.88032 9.35698C8.0636 9.58671 7.32259 10.0293 6.73314 10.6395C6.14369 11.2497 5.72697 12.0056 5.52563 12.8298C5.32429 13.654 5.34557 14.5169 5.58729 15.3301C5.829 16.1434 6.28248 16.8778 6.90129 17.4582C7.5201 18.0386 8.28203 18.4442 9.10908 18.6334C9.93613 18.8226 10.7986 18.7886 11.6082 18.5349C12.4178 18.2813 13.1455 17.817 13.7167 17.1898C14.288 16.5625 14.6823 15.7947 14.8593 14.9649L16.4244 15.2988Z" fill="#627EEA" stroke="white" stroke-opacity="0.8" stroke-width="3" mask="url(#path-2-inside-1_21921_622)"/>
  <path d="M2.8227 6.15278C2.8227 6.15278 2.72162 4.72018 3.77349 3.67773C4.82536 2.63528 6.29746 2.67802 6.29746 2.67802" stroke="white" stroke-opacity="0.8" stroke-width="1.5" stroke-linecap="round"/>
  <path d="M21.3248 17.7066C21.3248 17.7066 21.4258 19.1392 20.374 20.1816C19.3221 21.2241 17.85 21.1814 17.85 21.1814" stroke="white" stroke-opacity="0.8" stroke-width="1.5" stroke-linecap="round"/>
</svg>
