<svg width="25" height="24" viewBox="0 0 25 24" fill="none" xmlns="http://www.w3.org/2000/svg">
<path d="M7.25 11V7C7.25 5.67392 7.77678 4.40215 8.71447 3.46447C9.65215 2.52678 10.9239 2 12.25 2C13.5761 2 14.8479 2.52678 15.7855 3.46447C16.7232 4.40215 17.25 5.67392 17.25 7V11M5.25 11H19.25C20.3546 11 21.25 11.8954 21.25 13V20C21.25 21.1046 20.3546 22 19.25 22H5.25C4.14543 22 3.25 21.1046 3.25 20V13C3.25 11.8954 4.14543 11 5.25 11Z" stroke="white" stroke-width="2" stroke-linecap="round" stroke-linejoin="round"/>
</svg>
