<svg width="29" height="30" viewBox="0 0 29 30" fill="none" xmlns="http://www.w3.org/2000/svg">
<g clip-path="url(#clip0_2877_4152)">
<path d="M22.5749 8.7001C23.569 8.7001 24.3749 7.89421 24.3749 6.9001C24.3749 5.90599 23.569 5.1001 22.5749 5.1001C21.5808 5.1001 20.7749 5.90599 20.7749 6.9001C20.7749 7.89421 21.5808 8.7001 22.5749 8.7001Z" stroke="#767676" stroke-width="1.8" stroke-linecap="round" stroke-linejoin="round"/>
<path d="M22.575 5.10049V3.75049" stroke="#767676" stroke-width="1.8" stroke-linecap="round" stroke-linejoin="round"/>
<path d="M21.0153 6.00068L19.8464 5.32568" stroke="#767676" stroke-width="1.8" stroke-linecap="round" stroke-linejoin="round"/>
<path d="M21.0153 7.80029L19.8464 8.47529" stroke="#767676" stroke-width="1.8" stroke-linecap="round" stroke-linejoin="round"/>
<path d="M22.575 8.70068V10.0507" stroke="#767676" stroke-width="1.8" stroke-linecap="round" stroke-linejoin="round"/>
<path d="M24.1345 7.80029L25.3034 8.47529" stroke="#767676" stroke-width="1.8" stroke-linecap="round" stroke-linejoin="round"/>
<path d="M24.1345 6.00068L25.3034 5.32568" stroke="#767676" stroke-width="1.8" stroke-linecap="round" stroke-linejoin="round"/>
<path d="M14.4753 18.6001C16.9606 18.6001 18.9753 16.5854 18.9753 14.1001C18.9753 11.6148 16.9606 9.6001 14.4753 9.6001C11.9901 9.6001 9.97534 11.6148 9.97534 14.1001C9.97534 16.5854 11.9901 18.6001 14.4753 18.6001Z" stroke="#767676" stroke-width="1.8" stroke-linecap="round" stroke-linejoin="round"/>
<path d="M7.25244 23.0294C7.92959 21.6956 8.96285 20.5754 10.2377 19.7929C11.5125 19.0104 12.9791 18.5962 14.4749 18.5962C15.9708 18.5962 17.4374 19.0104 18.7122 19.7929C19.987 20.5754 21.0203 21.6956 21.6974 23.0294" stroke="#767676" stroke-width="1.8" stroke-linecap="round" stroke-linejoin="round"/>
<path d="M25.1252 13.2007C25.5049 15.4567 25.1578 17.7751 24.134 19.8209C23.1102 21.8668 21.4626 23.5343 19.4293 24.5828C17.3959 25.6312 15.082 26.0063 12.8215 25.6539C10.5611 25.3015 8.47117 24.2398 6.85349 22.6221C5.23582 21.0044 4.17412 18.9145 3.82169 16.654C3.46927 14.3936 3.84436 12.0797 4.89281 10.0463C5.94125 8.01295 7.6088 6.36542 9.65466 5.3416C11.7005 4.31778 14.0188 3.97066 16.2748 4.35035" stroke="#767676" stroke-width="1.8" stroke-linecap="round" stroke-linejoin="round"/>
</g>
<defs>
<clipPath id="clip0_2877_4152">
<rect width="28.8" height="28.8" fill="white" transform="translate(0.0749512 0.600098)"/>
</clipPath>
</defs>
</svg>
