<svg width="16" height="16" viewBox="0 0 16 16" fill="none" xmlns="http://www.w3.org/2000/svg">
<path d="M8.0071 1.34082C8.52563 1.34085 9.02639 1.52973 9.41577 1.87215L9.51844 1.96882L9.98377 2.43415C10.1115 2.56103 10.2782 2.64112 10.4571 2.66149L10.5471 2.66682H11.2138C11.7586 2.66679 12.2828 2.8752 12.6788 3.24931C13.0749 3.62343 13.3128 4.13489 13.3438 4.67882L13.3471 4.80015V5.46682C13.3471 5.64682 13.4084 5.82215 13.5191 5.96215L13.5791 6.02882L14.0438 6.49415C14.4289 6.87712 14.6535 7.39257 14.6717 7.9354C14.6899 8.47823 14.5004 9.00757 14.1418 9.41549L14.0451 9.51815L13.5798 9.98349C13.4529 10.1112 13.3728 10.278 13.3524 10.4568L13.3471 10.5468V11.2135C13.3471 11.7583 13.1387 12.2825 12.7646 12.6785C12.3905 13.0746 11.879 13.3125 11.3351 13.3435L11.2138 13.3468H10.5471C10.3674 13.3469 10.1929 13.4075 10.0518 13.5188L9.9851 13.5788L9.51977 14.0435C9.13681 14.4286 8.62136 14.6532 8.07853 14.6714C7.53569 14.6896 7.00635 14.5001 6.59844 14.1415L6.49577 14.0448L6.03044 13.5795C5.90273 13.4526 5.73597 13.3725 5.5571 13.3522L5.4671 13.3468H4.80044C4.25563 13.3469 3.73145 13.1384 3.33539 12.7643C2.93934 12.3902 2.70142 11.8787 2.67044 11.3348L2.6671 11.2135V10.5468C2.66704 10.3671 2.60646 10.1926 2.4951 10.0515L2.4351 9.98482L1.97044 9.51949C1.58529 9.13652 1.36072 8.62107 1.34251 8.07824C1.3243 7.53541 1.51382 7.00607 1.87244 6.59815L1.9691 6.49549L2.43444 6.03015C2.56131 5.90245 2.64141 5.73568 2.66177 5.55682L2.6671 5.46682V4.80015L2.67044 4.67882C2.70021 4.15578 2.92139 3.66199 3.29183 3.29155C3.66227 2.9211 4.15607 2.69992 4.6791 2.67015L4.80044 2.66682H5.4671C5.64685 2.66676 5.82134 2.60617 5.96244 2.49482L6.0291 2.43482L6.49444 1.97015C6.69266 1.77075 6.92835 1.61249 7.18795 1.50449C7.44755 1.39648 7.72593 1.34086 8.0071 1.34082ZM10.4718 6.19549C10.3468 6.07051 10.1772 6.0003 10.0004 6.0003C9.82366 6.0003 9.65412 6.07051 9.5291 6.19549L7.33377 8.39015L6.47177 7.52882L6.4091 7.47349C6.27511 7.36988 6.1067 7.32116 5.93809 7.33722C5.76947 7.35328 5.61329 7.43292 5.50127 7.55997C5.38925 7.68701 5.32978 7.85193 5.33495 8.02123C5.34012 8.19053 5.40954 8.35151 5.5291 8.47149L6.86244 9.80482L6.9251 9.86015C7.05337 9.95965 7.21354 10.0089 7.37556 9.99875C7.53758 9.98856 7.69031 9.9196 7.8051 9.80482L10.4718 7.13815L10.5271 7.07549C10.6266 6.94722 10.6759 6.78705 10.6657 6.62503C10.6555 6.46302 10.5866 6.31028 10.4718 6.19549Z" fill="#41CC5D"/>
</svg>
