<svg width="24" height="25" viewBox="0 0 24 25" fill="none" xmlns="http://www.w3.org/2000/svg">
<path d="M12 2.45215C10.0716 2.45215 8.18657 3.02398 6.58319 4.09532C4.97982 5.16666 3.73013 6.6894 2.99218 8.47098C2.25422 10.2526 2.06114 12.213 2.43735 14.1043C2.81355 15.9956 3.74215 17.7329 5.10571 19.0964C6.46928 20.46 8.20656 21.3886 10.0979 21.7648C11.9892 22.141 13.9496 21.9479 15.7312 21.21C17.5127 20.472 19.0355 19.2223 20.1068 17.619C21.1782 16.0156 21.75 14.1305 21.75 12.2021C21.7473 9.61713 20.7192 7.13876 18.8913 5.31087C17.0634 3.48298 14.585 2.45488 12 2.45215ZM16.2806 10.4828L11.0306 15.7328C10.961 15.8025 10.8783 15.8578 10.7872 15.8956C10.6962 15.9333 10.5986 15.9527 10.5 15.9527C10.4014 15.9527 10.3038 15.9333 10.2128 15.8956C10.1218 15.8578 10.039 15.8025 9.96938 15.7328L7.71938 13.4828C7.57865 13.342 7.49959 13.1512 7.49959 12.9521C7.49959 12.7531 7.57865 12.5623 7.71938 12.4215C7.86011 12.2808 8.05098 12.2017 8.25 12.2017C8.44903 12.2017 8.6399 12.2808 8.78063 12.4215L10.5 14.1418L15.2194 9.42152C15.2891 9.35184 15.3718 9.29657 15.4628 9.25885C15.5539 9.22114 15.6515 9.20173 15.75 9.20173C15.8486 9.20173 15.9461 9.22114 16.0372 9.25885C16.1282 9.29657 16.2109 9.35184 16.2806 9.42152C16.3503 9.49121 16.4056 9.57393 16.4433 9.66498C16.481 9.75602 16.5004 9.8536 16.5004 9.95215C16.5004 10.0507 16.481 10.1483 16.4433 10.2393C16.4056 10.3304 16.3503 10.4131 16.2806 10.4828Z" fill="#767676"/>
</svg>
