<svg xmlns="http://www.w3.org/2000/svg"  viewBox="0 0 20 20" fill="none">
<path fill-rule="evenodd" clip-rule="evenodd" d="M8.99513 0C4.02705 0 0 4.02705 0 8.99513C0 13.9632 4.02705 17.9903 8.99513 17.9903C11.1277 17.9903 13.0869 17.2483 14.6286 16.0083L18.3345 19.7142C18.7155 20.0952 19.3332 20.0952 19.7142 19.7143C20.0952 19.3333 20.0952 18.7155 19.7142 18.3345L16.0083 14.6286C17.2482 13.0869 17.9903 11.1277 17.9903 8.99513C17.9903 4.02705 13.9632 0 8.99513 0ZM1.95122 8.99513C1.95122 5.10468 5.10468 1.95122 8.99513 1.95122C12.8856 1.95122 16.039 5.10468 16.039 8.99513C16.039 12.8856 12.8856 16.039 8.99513 16.039C5.10468 16.039 1.95122 12.8856 1.95122 8.99513Z" fill="white" fill-opacity="0.4"/>
</svg>
