<svg width="17" height="16" viewBox="0 0 17 16" fill="none"
  xmlns="http://www.w3.org/2000/svg">
  <path d="M0.599609 4.34171V6.11055C0.599609 6.99498 3.66139 8.36181 8.52423 8.36181C13.3871 8.36181 16.4488 7.07538 16.4488 6.11055V4.34171C14.6478 5.38693 11.586 5.86935 8.52423 5.86935C5.46244 5.86935 2.40066 5.30653 0.599609 4.34171ZM8.52423 4.42211C13.3871 4.42211 16.4488 3.13568 16.4488 2.17085C16.4488 1.20603 13.3871 0 8.52423 0C3.66139 0 0.599609 1.28643 0.599609 2.17085C0.599609 3.05528 3.66139 4.42211 8.52423 4.42211ZM8.52423 13.5879C5.46244 13.5879 2.40066 13.1055 0.599609 12.0603V13.8291C0.599609 14.7136 3.66139 16 8.52423 16C13.3871 16 16.4488 14.7136 16.4488 13.8291V12.0603C14.6478 13.1055 11.586 13.5879 8.52423 13.5879ZM8.52423 9.72864C5.46244 9.72864 2.40066 9.24623 0.599609 8.201V9.96985C0.599609 10.8543 3.66139 12.1407 8.52423 12.1407C13.3871 12.1407 16.4488 10.8543 16.4488 9.96985V8.201C14.6478 9.16583 11.586 9.72864 8.52423 9.72864Z" fill="white" fill-opacity="0.8"/>
</svg>
