<svg width="32" height="32" viewBox="0 0 32 32" fill="none" xmlns="http://www.w3.org/2000/svg">
<path d="M15.9997 10.6668V16.0001M15.9997 21.3334H16.0131M13.7197 3.81344L2.42639 22.6668C2.19355 23.07 2.07034 23.5272 2.06904 23.9928C2.06774 24.4584 2.18838 24.9163 2.41896 25.3208C2.64954 25.7253 2.98202 26.0624 3.38333 26.2986C3.78464 26.5347 4.24079 26.6617 4.70639 26.6668H27.2931C27.7587 26.6617 28.2148 26.5347 28.6161 26.2986C29.0174 26.0624 29.3499 25.7253 29.5805 25.3208C29.8111 24.9163 29.9317 24.4584 29.9304 23.9928C29.9291 23.5272 29.8059 23.07 29.5731 22.6668L18.2797 3.81344C18.042 3.42159 17.7074 3.0976 17.308 2.87276C16.9086 2.64791 16.458 2.52979 15.9997 2.52979C15.5414 2.52979 15.0908 2.64791 14.6915 2.87276C14.2921 3.0976 13.9574 3.42159 13.7197 3.81344Z" stroke="white" stroke-width="2" stroke-linecap="round" stroke-linejoin="round"/>
</svg>
