<svg width="28" height="28" viewBox="0 0 28 28" fill="none" xmlns="http://www.w3.org/2000/svg">
<path d="M16.3337 2.33398H7.00033C6.38149 2.33398 5.78799 2.57982 5.35041 3.0174C4.91282 3.45499 4.66699 4.04848 4.66699 4.66732V23.334C4.66699 23.9528 4.91282 24.5463 5.35041 24.9839C5.78799 25.4215 6.38149 25.6673 7.00033 25.6673H21.0003C21.6192 25.6673 22.2127 25.4215 22.6502 24.9839C23.0878 24.5463 23.3337 23.9528 23.3337 23.334V9.33398M16.3337 2.33398L23.3337 9.33398M16.3337 2.33398V9.33398H23.3337M18.667 15.1673H9.33366M18.667 19.834H9.33366M11.667 10.5007H9.33366" stroke="#00EF8B" stroke-width="2" stroke-linecap="round" stroke-linejoin="round"/>
</svg>
