<svg width="18" height="20" viewBox="0 0 18 20" fill="none" xmlns="http://www.w3.org/2000/svg">
<path d="M7.33893 8.7796V7.52661C7.33893 6.60394 8.08691 5.85596 9.00959 5.85596C9.93226 5.85596 10.6802 6.60394 10.6802 7.52661V8.7796M8.38309 13.3739H9.63608C10.6157 13.3739 11.1056 13.3739 11.443 13.115C11.5299 13.0483 11.6076 12.9706 11.6743 12.8837C11.9332 12.5462 11.9332 12.0564 11.9332 11.0768C11.9332 10.0971 11.9332 9.60726 11.6743 9.26982C11.6076 9.18295 11.5299 9.10519 11.443 9.03853C11.1056 8.7796 10.6157 8.7796 9.63608 8.7796H8.38309C7.40343 8.7796 6.9136 8.7796 6.57616 9.03853C6.48928 9.10519 6.41152 9.18295 6.34486 9.26982C6.08594 9.60726 6.08594 10.0971 6.08594 11.0768C6.08594 12.0564 6.08594 12.5462 6.34486 12.8837C6.41152 12.9706 6.48928 13.0483 6.57616 13.115C6.9136 13.3739 7.40343 13.3739 8.38309 13.3739Z" stroke="#00EF8B" stroke-width="1.5" stroke-linejoin="round"/>
<path d="M1.89746 4.18518C4.41288 4.18518 6.1257 1.6792 9.01014 1.6792C11.8946 1.6792 13.6073 4.18518 16.1227 4.18518C17.7998 12.5389 14.0468 17.2021 9.01009 18.3858C3.97342 17.2021 0.220394 12.5389 1.89746 4.18518Z" stroke="#00EF8B" stroke-width="1.5" stroke-linejoin="round"/>
</svg>
