<svg width="40" height="27" viewBox="0 0 40 27" fill="none" xmlns="http://www.w3.org/2000/svg">
<path d="M34.1618 11.1287C34.165 11.0311 34.1667 10.9326 34.1667 10.8333C34.1667 4.86003 29.3066 0 23.3333 0C19.3896 0 15.7666 2.16227 13.8672 5.57861C13.0485 5.19857 12.1582 5 11.25 5C8.02409 5 5.3597 7.45768 5.04232 10.7096C2.00521 12.019 0 15.0163 0 18.3333C0 22.9281 3.73861 26.6667 8.33333 26.6667H32.0833C36.4486 26.6667 40 23.1152 40 18.75C40 15.1473 37.5863 12.0532 34.1618 11.1287Z" fill="url(#paint0_linear_11428_70501)"/>
<path d="M34.1618 11.1287C34.165 11.0311 34.1667 10.9326 34.1667 10.8333C34.1667 4.86003 29.3066 0 23.3333 0C19.3896 0 15.7666 2.16227 13.8672 5.57861C13.0485 5.19857 12.1582 5 11.25 5C8.02409 5 5.3597 7.45768 5.04232 10.7096C2.00521 12.019 0 15.0163 0 18.3333C0 22.9281 3.73861 26.6667 8.33333 26.6667H32.0833C36.4486 26.6667 40 23.1152 40 18.75C40 15.1473 37.5863 12.0532 34.1618 11.1287Z" fill="url(#paint1_radial_11428_70501)"/>
<path d="M32.0837 26.6673C36.4559 26.6673 40.0003 23.1229 40.0003 18.7507C40.0003 14.3784 36.4559 10.834 32.0837 10.834C27.7114 10.834 24.167 14.3784 24.167 18.7507C24.167 23.1229 27.7114 26.6673 32.0837 26.6673Z" fill="url(#paint2_linear_11428_70501)"/>
<path d="M8.33333 26.6667C12.9357 26.6667 16.6667 22.9357 16.6667 18.3333C16.6667 13.731 12.9357 10 8.33333 10C3.73096 10 0 13.731 0 18.3333C0 22.9357 3.73096 26.6667 8.33333 26.6667Z" fill="url(#paint3_linear_11428_70501)"/>
<path opacity="0.2" d="M11.25 17.5C14.7018 17.5 17.5 14.7018 17.5 11.25C17.5 7.79822 14.7018 5 11.25 5C7.79822 5 5 7.79822 5 11.25C5 14.7018 7.79822 17.5 11.25 17.5Z" fill="#56C7DA"/>
<path d="M23.3333 21.6667C29.3164 21.6667 34.1667 16.8164 34.1667 10.8333C34.1667 4.85025 29.3164 0 23.3333 0C17.3502 0 12.5 4.85025 12.5 10.8333C12.5 16.8164 17.3502 21.6667 23.3333 21.6667Z" fill="url(#paint4_linear_11428_70501)"/>
<path d="M34.1618 11.1287C34.165 11.0311 34.1667 10.9326 34.1667 10.8333C34.1667 4.86003 29.3066 0 23.3333 0C19.3896 0 15.7666 2.16227 13.8672 5.57861C13.0485 5.19857 12.1582 5 11.25 5C8.02409 5 5.3597 7.45768 5.04232 10.7096C2.00521 12.019 0 15.0163 0 18.3333C0 22.9281 3.73861 26.6667 8.33333 26.6667H32.0833C36.4486 26.6667 40 23.1152 40 18.75C40 15.1473 37.5863 12.0532 34.1618 11.1287Z" fill="url(#paint5_linear_11428_70501)"/>
<defs>
<linearGradient id="paint0_linear_11428_70501" x1="0" y1="13.3333" x2="40" y2="13.3333" gradientUnits="userSpaceOnUse">
<stop stop-color="#95DCF6"/>
<stop offset="1" stop-color="#507EFF"/>
</linearGradient>
<radialGradient id="paint1_radial_11428_70501" cx="0" cy="0" r="1" gradientUnits="userSpaceOnUse" gradientTransform="translate(20.5556 26.25) scale(16.9967)">
<stop stop-color="#009ADA"/>
<stop offset="1" stop-color="#1E88E5" stop-opacity="0"/>
</radialGradient>
<linearGradient id="paint2_linear_11428_70501" x1="24.907" y1="15.4041" x2="39.2603" y2="22.0972" gradientUnits="userSpaceOnUse">
<stop stop-color="white" stop-opacity="0.06"/>
<stop offset="1" stop-color="white" stop-opacity="0"/>
</linearGradient>
<linearGradient id="paint3_linear_11428_70501" x1="14.3225" y1="14.2717" x2="2.23918" y2="22.4662" gradientUnits="userSpaceOnUse">
<stop stop-color="white" stop-opacity="0"/>
<stop offset="1" stop-color="white" stop-opacity="0.06"/>
</linearGradient>
<linearGradient id="paint4_linear_11428_70501" x1="23.3333" y1="0" x2="23.3333" y2="21.6667" gradientUnits="userSpaceOnUse">
<stop stop-color="#00ACCD" stop-opacity="0.2"/>
<stop offset="0.127444" stop-color="#1AB4D2" stop-opacity="0.174511"/>
<stop offset="0.400106" stop-color="#5CCADF" stop-opacity="0.119979"/>
<stop offset="0.79292" stop-color="#C5ECF4" stop-opacity="0.041416"/>
<stop offset="1" stop-color="white" stop-opacity="0"/>
</linearGradient>
<linearGradient id="paint5_linear_11428_70501" x1="4.09506" y1="7.73052" x2="38.4797" y2="23.7643" gradientUnits="userSpaceOnUse">
<stop stop-color="white" stop-opacity="0.1"/>
<stop offset="1" stop-color="white" stop-opacity="0"/>
</linearGradient>
</defs>
</svg>
