<svg width="18" height="22" viewBox="0 0 18 22" fill="none" xmlns="http://www.w3.org/2000/svg">
<path d="M13.1731 8.00196V7.16663C13.1731 4.41019 13.1731 3.03197 12.3168 2.17565C11.4605 1.31934 10.0823 1.31934 7.32581 1.31934C4.56937 1.31934 3.19115 1.31934 2.33483 2.17565C1.47852 3.03197 1.47852 4.41019 1.47852 7.16663V12.1786C1.47852 14.935 1.47852 16.3133 2.33483 17.1696C3.19115 18.0259 4.56937 18.0259 7.32581 18.0259C7.61956 18.0259 7.89766 18.0259 8.16114 18.0249" stroke="#00EF8B" stroke-width="1.5" stroke-linecap="round"/>
<path d="M11.92 15.9373V14.6843C11.92 13.7617 12.668 13.0137 13.5906 13.0137C14.5133 13.0137 15.2613 13.7617 15.2613 14.6843V15.9373M12.9641 20.5316H14.2171C15.1968 20.5316 15.6866 20.5316 16.0241 20.2727C16.1109 20.206 16.1887 20.1283 16.2554 20.0414C16.5143 19.704 16.5143 19.2141 16.5143 18.2345C16.5143 17.2548 16.5143 16.765 16.2554 16.4275C16.1887 16.3407 16.1109 16.2629 16.0241 16.1962C15.6866 15.9373 15.1968 15.9373 14.2171 15.9373H12.9641C11.9845 15.9373 11.4947 15.9373 11.1572 16.1962C11.0703 16.2629 10.9926 16.3407 10.9259 16.4275C10.667 16.765 10.667 17.2548 10.667 18.2345C10.667 19.2141 10.667 19.704 10.9259 20.0414C10.9926 20.1283 11.0703 20.206 11.1572 20.2727C11.4947 20.5316 11.9845 20.5316 12.9641 20.5316Z" stroke="#00EF8B" stroke-width="1.5" stroke-linejoin="round"/>
<path d="M7.32617 15.5156V15.5246" stroke="#00EF8B" stroke-width="2" stroke-linecap="round" stroke-linejoin="round"/>
</svg>
