<svg width="20" height="20" viewBox="0 0 20 20" fill="none" xmlns="http://www.w3.org/2000/svg">
<g clip-path="url(#clip0_14050_76101)">
<path d="M10.0007 12.5C11.3814 12.5 12.5006 11.3807 12.5006 9.99998C12.5006 8.61927 11.3814 7.49998 10.0007 7.49998C8.61994 7.49998 7.50065 8.61927 7.50065 9.99998C7.50065 11.3807 8.61994 12.5 10.0007 12.5Z" stroke="#00EF8B" stroke-width="1.66667" stroke-linecap="round" stroke-linejoin="round"/>
<path d="M16.1673 12.5C16.0564 12.7513 16.0233 13.0301 16.0723 13.3005C16.1213 13.5708 16.2502 13.8202 16.4423 14.0166L16.4923 14.0666C16.6473 14.2214 16.7702 14.4052 16.8541 14.6076C16.938 14.8099 16.9811 15.0268 16.9811 15.2458C16.9811 15.4648 16.938 15.6817 16.8541 15.884C16.7702 16.0864 16.6473 16.2702 16.4923 16.425C16.3375 16.5799 16.1537 16.7029 15.9514 16.7867C15.7491 16.8706 15.5322 16.9138 15.3131 16.9138C15.0941 16.9138 14.8772 16.8706 14.6749 16.7867C14.4726 16.7029 14.2888 16.5799 14.134 16.425L14.084 16.375C13.8876 16.1829 13.6381 16.054 13.3678 16.005C13.0975 15.956 12.8187 15.989 12.5673 16.1C12.3208 16.2056 12.1106 16.381 11.9626 16.6046C11.8145 16.8282 11.7351 17.0902 11.734 17.3583V17.5C11.734 17.942 11.5584 18.3659 11.2458 18.6785C10.9333 18.991 10.5093 19.1666 10.0673 19.1666C9.62529 19.1666 9.20137 18.991 8.88881 18.6785C8.57625 18.3659 8.40065 17.942 8.40065 17.5V17.425C8.3942 17.1491 8.30492 16.8816 8.14441 16.6572C7.9839 16.4328 7.7596 16.2619 7.50065 16.1666C7.2493 16.0557 6.97049 16.0226 6.70016 16.0716C6.42983 16.1207 6.18038 16.2495 5.98398 16.4416L5.93398 16.4916C5.7792 16.6466 5.59538 16.7695 5.39305 16.8534C5.19072 16.9373 4.97384 16.9805 4.75482 16.9805C4.53579 16.9805 4.31891 16.9373 4.11658 16.8534C3.91425 16.7695 3.73044 16.6466 3.57565 16.4916C3.42069 16.3369 3.29776 16.153 3.21388 15.9507C3.13001 15.7484 3.08684 15.5315 3.08684 15.3125C3.08684 15.0935 3.13001 14.8766 3.21388 14.6742C3.29776 14.4719 3.42069 14.2881 3.57565 14.1333L3.62565 14.0833C3.81776 13.8869 3.94664 13.6375 3.99565 13.3671C4.04467 13.0968 4.01158 12.818 3.90065 12.5666C3.79501 12.3202 3.61961 12.11 3.39604 11.9619C3.17246 11.8138 2.91047 11.7344 2.64232 11.7333H2.50065C2.05862 11.7333 1.6347 11.5577 1.32214 11.2452C1.00958 10.9326 0.833984 10.5087 0.833984 10.0666C0.833984 9.62462 1.00958 9.2007 1.32214 8.88813C1.6347 8.57557 2.05862 8.39998 2.50065 8.39998H2.57565C2.85148 8.39353 3.11899 8.30424 3.3434 8.14374C3.56781 7.98323 3.73875 7.75893 3.83398 7.49998C3.94491 7.24863 3.978 6.96982 3.92899 6.69949C3.87997 6.42916 3.7511 6.17971 3.55898 5.98331L3.50898 5.93331C3.35402 5.77852 3.23109 5.59471 3.14722 5.39238C3.06334 5.19005 3.02017 4.97317 3.02017 4.75415C3.02017 4.53512 3.06334 4.31824 3.14722 4.11591C3.23109 3.91358 3.35402 3.72977 3.50898 3.57498C3.66377 3.42002 3.84759 3.29709 4.04992 3.21321C4.25225 3.12934 4.46912 3.08617 4.68815 3.08617C4.90718 3.08617 5.12405 3.12934 5.32638 3.21321C5.52871 3.29709 5.71253 3.42002 5.86732 3.57498L5.91732 3.62498C6.11372 3.81709 6.36316 3.94597 6.63349 3.99498C6.90382 4.044 7.18264 4.01091 7.43398 3.89998H7.50065C7.74712 3.79434 7.95733 3.61894 8.10539 3.39537C8.25346 3.17179 8.33291 2.9098 8.33398 2.64165V2.49998C8.33398 2.05795 8.50958 1.63403 8.82214 1.32147C9.1347 1.00891 9.55862 0.833313 10.0007 0.833313C10.4427 0.833313 10.8666 1.00891 11.1792 1.32147C11.4917 1.63403 11.6673 2.05795 11.6673 2.49998V2.57498C11.6684 2.84313 11.7478 3.10513 11.8959 3.3287C12.044 3.55228 12.2542 3.72768 12.5006 3.83331C12.752 3.94424 13.0308 3.97733 13.3011 3.92832C13.5715 3.8793 13.8209 3.75043 14.0173 3.55831L14.0673 3.50831C14.2221 3.35335 14.4059 3.23042 14.6082 3.14655C14.8106 3.06267 15.0275 3.0195 15.2465 3.0195C15.4655 3.0195 15.6824 3.06267 15.8847 3.14655C16.087 3.23042 16.2709 3.35335 16.4256 3.50831C16.5806 3.6631 16.7035 3.84692 16.7874 4.04925C16.8713 4.25158 16.9145 4.46845 16.9145 4.68748C16.9145 4.90651 16.8713 5.12338 16.7874 5.32571C16.7035 5.52804 16.5806 5.71186 16.4256 5.86665L16.3756 5.91665C16.1835 6.11305 16.0547 6.36249 16.0056 6.63282C15.9566 6.90315 15.9897 7.18197 16.1006 7.43331V7.49998C16.2063 7.74645 16.3817 7.95666 16.6053 8.10472C16.8288 8.25279 17.0908 8.33224 17.359 8.33331H17.5006C17.9427 8.33331 18.3666 8.50891 18.6792 8.82147C18.9917 9.13403 19.1673 9.55795 19.1673 9.99998C19.1673 10.442 18.9917 10.8659 18.6792 11.1785C18.3666 11.4911 17.9427 11.6666 17.5006 11.6666H17.4256C17.1575 11.6677 16.8955 11.7472 16.6719 11.8952C16.4484 12.0433 16.273 12.2535 16.1673 12.5Z" stroke="#00EF8B" stroke-width="1.66667" stroke-linecap="round" stroke-linejoin="round"/>
</g>
<defs>
<clipPath id="clip0_14050_76101">
<rect width="20" height="20" fill="white"/>
</clipPath>
</defs>
</svg>
