<svg width="28" height="28" viewBox="0 0 28 28" fill="none" xmlns="http://www.w3.org/2000/svg">
<g clip-path="url(#clip0_13590_27409)">
<path d="M18.6664 18.6658L13.9997 13.9991M13.9997 13.9991L9.33304 18.6658M13.9997 13.9991V24.4991M23.788 21.4541C24.9259 20.8337 25.8248 19.8521 26.3429 18.6641C26.8609 17.4762 26.9686 16.1495 26.6489 14.8936C26.3293 13.6376 25.6004 12.5238 24.5775 11.7281C23.5545 10.9324 22.2957 10.4999 20.9997 10.4991H19.5297C19.1766 9.1332 18.5184 7.86514 17.6046 6.79024C16.6909 5.71535 15.5454 4.86158 14.2542 4.29313C12.963 3.72468 11.5597 3.45634 10.1498 3.50828C8.74001 3.56023 7.36029 3.9311 6.11442 4.59303C4.86854 5.25496 3.78894 6.19071 2.95677 7.32993C2.1246 8.46916 1.56151 9.78221 1.30985 11.1704C1.05819 12.5585 1.1245 13.9857 1.50379 15.3446C1.88308 16.7034 2.56549 17.9586 3.49971 19.0158" stroke="#00EF8B" stroke-width="2" stroke-linecap="round" stroke-linejoin="round"/>
</g>
<defs>
<clipPath id="clip0_13590_27409">
<rect width="28" height="28" fill="white"/>
</clipPath>
</defs>
</svg>
