<svg width="24" height="25" viewBox="0 0 24 25" fill="none" xmlns="http://www.w3.org/2000/svg">
<path d="M11.9998 8.74972V12.7497M11.9998 16.7497H12.0098M10.2898 3.60972L1.81978 17.7497C1.64514 18.0521 1.55274 18.395 1.55177 18.7442C1.55079 19.0935 1.64127 19.4368 1.8142 19.7402C1.98714 20.0436 2.2365 20.2965 2.53748 20.4736C2.83847 20.6507 3.18058 20.7459 3.52978 20.7497H20.4698C20.819 20.7459 21.1611 20.6507 21.4621 20.4736C21.7631 20.2965 22.0124 20.0436 22.1854 19.7402C22.3583 19.4368 22.4488 19.0935 22.4478 18.7442C22.4468 18.395 22.3544 18.0521 22.1798 17.7497L13.7098 3.60972C13.5315 3.31582 13.2805 3.07284 12.981 2.9042C12.6814 2.73556 12.3435 2.64697 11.9998 2.64697C11.656 2.64697 11.3181 2.73556 11.0186 2.9042C10.7191 3.07284 10.468 3.31582 10.2898 3.60972Z" stroke="white" stroke-opacity="0.5" stroke-width="1.6" stroke-linecap="round" stroke-linejoin="round"/>
</svg>
