<svg width="30" height="29" viewBox="0 0 30 29" fill="none" xmlns="http://www.w3.org/2000/svg">
<path d="M5.34723 10.0907H8.96691C9.16023 10.8457 9.59933 11.5149 10.215 11.9928C10.8307 12.4707 11.5879 12.7301 12.3672 12.7301C13.1466 12.7301 13.9038 12.4707 14.5195 11.9928C15.1351 11.5149 15.5742 10.8457 15.7675 10.0907H24.6522C24.885 10.0907 25.1082 9.99822 25.2727 9.83366C25.4373 9.66909 25.5297 9.4459 25.5297 9.21317C25.5297 8.98044 25.4373 8.75725 25.2727 8.59269C25.1082 8.42812 24.885 8.33567 24.6522 8.33567H15.7675C15.5742 7.58066 15.1351 6.91146 14.5195 6.43357C13.9038 5.95568 13.1466 5.69629 12.3672 5.69629C11.5879 5.69629 10.8307 5.95568 10.215 6.43357C9.59933 6.91146 9.16023 7.58066 8.96691 8.33567H5.34723C5.1145 8.33567 4.8913 8.42812 4.72674 8.59269C4.56218 8.75725 4.46973 8.98044 4.46973 9.21317C4.46973 9.4459 4.56218 9.66909 4.72674 9.83366C4.8913 9.99822 5.1145 10.0907 5.34723 10.0907ZM12.3672 7.45817C12.7143 7.45817 13.0536 7.5611 13.3423 7.75394C13.6309 7.94678 13.8558 8.22088 13.9886 8.54156C14.1215 8.86225 14.1562 9.21512 14.0885 9.55556C14.0208 9.89599 13.8536 10.2087 13.6082 10.4541C13.3628 10.6996 13.05 10.8667 12.7096 10.9345C12.3692 11.0022 12.0163 10.9674 11.6956 10.8346C11.3749 10.7017 11.1008 10.4768 10.908 10.1882C10.7152 9.89959 10.6122 9.56028 10.6122 9.21317C10.6122 8.74772 10.7971 8.30133 11.1263 7.9722C11.4554 7.64307 11.9018 7.45817 12.3672 7.45817ZM24.6522 18.8657H22.7875C22.5942 18.1107 22.1551 17.4415 21.5395 16.9636C20.9238 16.4857 20.1666 16.2263 19.3872 16.2263C18.6079 16.2263 17.8507 16.4857 17.235 16.9636C16.6193 17.4415 16.1802 18.1107 15.9869 18.8657H5.34723C5.1145 18.8657 4.8913 18.9581 4.72674 19.1227C4.56218 19.2872 4.46973 19.5104 4.46973 19.7432C4.46973 19.9759 4.56218 20.1991 4.72674 20.3637C4.8913 20.5282 5.1145 20.6207 5.34723 20.6207H15.9869C16.1802 21.3757 16.6193 22.0449 17.235 22.5228C17.8507 23.0007 18.6079 23.2601 19.3872 23.2601C20.1666 23.2601 20.9238 23.0007 21.5395 22.5228C22.1551 22.0449 22.5942 21.3757 22.7875 20.6207H24.6522C24.885 20.6207 25.1082 20.5282 25.2727 20.3637C25.4373 20.1991 25.5297 19.9759 25.5297 19.7432C25.5297 19.5104 25.4373 19.2872 25.2727 19.1227C25.1082 18.9581 24.885 18.8657 24.6522 18.8657ZM19.3872 21.4982C19.0401 21.4982 18.7008 21.3952 18.4122 21.2024C18.1236 21.0096 17.8986 20.7355 17.7658 20.4148C17.633 20.0941 17.5982 19.7412 17.6659 19.4008C17.7337 19.0604 17.9008 18.7476 18.1463 18.5022C18.3917 18.2568 18.7044 18.0896 19.0448 18.0219C19.3853 17.9542 19.7382 17.9889 20.0588 18.1218C20.3795 18.2546 20.6536 18.4795 20.8465 18.7681C21.0393 19.0568 21.1422 19.3961 21.1422 19.7432C21.1422 20.2086 20.9573 20.655 20.6282 20.9841C20.2991 21.3133 19.8527 21.4982 19.3872 21.4982Z" fill="white" fill-opacity="0.8"/>
</svg>
