<svg width="16" height="16" viewBox="0 0 16 16" fill="none"
  xmlns="http://www.w3.org/2000/svg">
  <path d="M2.66699 3.33268C2.66699 3.15587 2.73723 2.9863 2.86225 2.86128C2.98728 2.73625 3.15685 2.66602 3.33366 2.66602H6.00033C6.17714 2.66602 6.34671 2.73625 6.47173 2.86128C6.59675 2.9863 6.66699 3.15587 6.66699 3.33268V5.99935C6.66699 6.17616 6.59675 6.34573 6.47173 6.47075C6.34671 6.59578 6.17714 6.66602 6.00033 6.66602H3.33366C3.15685 6.66602 2.98728 6.59578 2.86225 6.47075C2.73723 6.34573 2.66699 6.17616 2.66699 5.99935V3.33268Z" stroke="white" stroke-width="1.33333" stroke-linecap="round" stroke-linejoin="round"/>
  <path d="M9.33366 3.33268C9.33366 3.15587 9.4039 2.9863 9.52892 2.86128C9.65395 2.73625 9.82351 2.66602 10.0003 2.66602H12.667C12.8438 2.66602 13.0134 2.73625 13.1384 2.86128C13.2634 2.9863 13.3337 3.15587 13.3337 3.33268V5.99935C13.3337 6.17616 13.2634 6.34573 13.1384 6.47075C13.0134 6.59578 12.8438 6.66602 12.667 6.66602H10.0003C9.82351 6.66602 9.65395 6.59578 9.52892 6.47075C9.4039 6.34573 9.33366 6.17616 9.33366 5.99935V3.33268Z" stroke="white" stroke-width="1.33333" stroke-linecap="round" stroke-linejoin="round"/>
  <path d="M2.66699 9.99935C2.66699 9.82254 2.73723 9.65297 2.86225 9.52794C2.98728 9.40292 3.15685 9.33268 3.33366 9.33268H6.00033C6.17714 9.33268 6.34671 9.40292 6.47173 9.52794C6.59675 9.65297 6.66699 9.82254 6.66699 9.99935V12.666C6.66699 12.8428 6.59675 13.0124 6.47173 13.1374C6.34671 13.2624 6.17714 13.3327 6.00033 13.3327H3.33366C3.15685 13.3327 2.98728 13.2624 2.86225 13.1374C2.73723 13.0124 2.66699 12.8428 2.66699 12.666V9.99935Z" stroke="white" stroke-width="1.33333" stroke-linecap="round" stroke-linejoin="round"/>
  <path d="M9.33366 9.99935C9.33366 9.82254 9.4039 9.65297 9.52892 9.52794C9.65395 9.40292 9.82351 9.33268 10.0003 9.33268H12.667C12.8438 9.33268 13.0134 9.40292 13.1384 9.52794C13.2634 9.65297 13.3337 9.82254 13.3337 9.99935V12.666C13.3337 12.8428 13.2634 13.0124 13.1384 13.1374C13.0134 13.2624 12.8438 13.3327 12.667 13.3327H10.0003C9.82351 13.3327 9.65395 13.2624 9.52892 13.1374C9.4039 13.0124 9.33366 12.8428 9.33366 12.666V9.99935Z" stroke="white" stroke-width="1.33333" stroke-linecap="round" stroke-linejoin="round"/>
</svg>
