<svg width="26" height="25" viewBox="0 0 26 25" fill="none" xmlns="http://www.w3.org/2000/svg">
<g id="Group 47722">
<g id="add-stroke">
<path id="add-stroke_2" d="M13 3.5C13.5672 3.5 14.0273 3.96018 14.0273 4.52734V11.5H21.2432C21.7953 11.5002 22.2432 11.9478 22.2432 12.5C22.2432 13.0522 21.7953 13.4998 21.2432 13.5H14.0273V20.4727C14.0273 21.0398 13.5672 21.5 13 21.5C12.433 21.4998 11.9736 21.0397 11.9736 20.4727V13.5H4.75781C4.20553 13.5 3.75781 13.0523 3.75781 12.5C3.75781 11.9477 4.20553 11.5 4.75781 11.5H11.9736V4.52734C11.9736 3.9603 12.433 3.5002 13 3.5Z" fill="white" fill-opacity="0.8"/>
</g>
</g>
</svg>
