<svg width="22" height="22" viewBox="0 0 22 22" fill="none" xmlns="http://www.w3.org/2000/svg">
<g id="tabler-icon-adjustments-horizontal">
<rect x="0.25" y="0.25" width="21.5" height="21.5" stroke="black" stroke-width="0.5"/>
<path id="Vector" d="M10.9998 5.49996C10.9998 5.98619 11.193 6.45251 11.5368 6.79632C11.8806 7.14014 12.3469 7.33329 12.8332 7.33329C13.3194 7.33329 13.7857 7.14014 14.1295 6.79632C14.4733 6.45251 14.6665 5.98619 14.6665 5.49996M10.9998 5.49996C10.9998 5.01373 11.193 4.54741 11.5368 4.2036C11.8806 3.85978 12.3469 3.66663 12.8332 3.66663C13.3194 3.66663 13.7857 3.85978 14.1295 4.2036C14.4733 4.54741 14.6665 5.01373 14.6665 5.49996M10.9998 5.49996H3.6665M14.6665 5.49996H18.3332M5.49984 11C5.49984 11.4862 5.69299 11.9525 6.03681 12.2963C6.38062 12.6401 6.84694 12.8333 7.33317 12.8333C7.8194 12.8333 8.28572 12.6401 8.62953 12.2963C8.97335 11.9525 9.1665 11.4862 9.1665 11M5.49984 11C5.49984 10.5137 5.69299 10.0474 6.03681 9.7036C6.38062 9.35978 6.84694 9.16663 7.33317 9.16663C7.8194 9.16663 8.28572 9.35978 8.62953 9.7036C8.97335 10.0474 9.1665 10.5137 9.1665 11M5.49984 11H3.6665M9.1665 11H18.3332M13.7498 16.5C13.7498 16.9862 13.943 17.4525 14.2868 17.7963C14.6306 18.1401 15.0969 18.3333 15.5832 18.3333C16.0694 18.3333 16.5357 18.1401 16.8795 17.7963C17.2233 17.4525 17.4165 16.9862 17.4165 16.5M13.7498 16.5C13.7498 16.0137 13.943 15.5474 14.2868 15.2036C14.6306 14.8598 15.0969 14.6666 15.5832 14.6666C16.0694 14.6666 16.5357 14.8598 16.8795 15.2036C17.2233 15.5474 17.4165 16.0137 17.4165 16.5M13.7498 16.5H3.6665M17.4165 16.5H18.3332" stroke="white" stroke-opacity="0.8" stroke-linecap="round" stroke-linejoin="round"/>
</g>
</svg>
